<svg width="57" height="62" viewBox="0 0 57 62" fill="none" xmlns="http://www.w3.org/2000/svg">
<g clip-path="url(#clip0_20_126)">
<path d="M39.0961 5.60709C39.0625 5.55715 39.0446 5.49825 39.0446 5.43797C39.0446 5.37769 39.0625 5.31879 39.0961 5.26886L40.7113 2.09184C40.7786 1.8889 40.9133 1.82126 40.9806 1.82126C41.7309 2.15216 42.4327 2.58437 43.0666 3.10594C44.2777 3.98475 44.8832 4.45769 44.8832 4.66063C44.8832 5.20122 44.345 6.35061 43.2681 8.04002C43.1334 8.24276 42.9989 8.31041 42.8646 8.24295C41.6848 7.259 40.4241 6.37722 39.0961 5.60709Z" fill="#C3922E"/>
<path d="M24.2918 11.8253C23.8883 12.0959 23.6863 12.2306 23.6863 12.3659C23.6861 12.3748 23.6877 12.3837 23.691 12.392C23.6943 12.4004 23.6992 12.4079 23.7055 12.4142C23.7118 12.4206 23.7193 12.4255 23.7276 12.4289C23.7359 12.4322 23.7447 12.4338 23.7536 12.4335C24.0079 12.3973 24.2566 12.3292 24.4939 12.2306C26.7145 11.4194 27.9929 10.9465 28.1949 10.8095C29.4357 10.2177 30.6089 9.49249 31.694 8.64656C32.7589 7.8813 33.691 6.94504 34.4528 5.8754C34.8996 6.13087 35.3075 6.44963 35.6639 6.82186C36.1463 6.34482 36.4746 5.73298 36.6061 5.06594C36.2563 4.66786 35.8479 4.32588 35.3951 4.05184C35.6447 3.24103 35.7805 2.3992 35.7986 1.55069C35.7986 0.739525 35.5965 0.266581 35.1257 0.0636474C34.5875 -0.139287 33.9146 0.131292 33.0397 0.874815C32.6686 1.17791 32.368 1.5588 32.1588 1.99084C31.9496 2.42287 31.8369 2.89561 31.8287 3.37596C31.8287 4.11948 32.5015 4.86301 33.7799 5.53889C32.4292 6.82865 30.9396 7.96325 29.3387 8.92169C27.6562 9.8653 25.9743 10.8788 24.2918 11.8253ZM32.9724 2.43007C32.9724 2.29478 33.1069 2.15968 33.3759 2.02477C33.562 1.9025 33.7664 1.81114 33.9814 1.7542C34.3181 1.7542 34.5196 1.95713 34.5869 2.43007C34.6654 2.83489 34.6423 3.25297 34.5196 3.64654C33.5106 3.1736 32.9724 2.7683 32.9724 2.43007Z" fill="#C3922E"/>
<path d="M31.0211 31.9004C30.6176 32.171 30.4155 32.3057 30.4155 32.441C30.4153 32.4499 30.4169 32.4588 30.4202 32.4671C30.4235 32.4754 30.4285 32.483 30.4348 32.4893C30.4411 32.4957 30.4486 32.5006 30.4568 32.5039C30.4651 32.5073 30.474 32.5089 30.4829 32.5086C30.7371 32.4724 30.9858 32.4042 31.2231 32.3057C33.4438 31.4945 34.7222 31.0216 34.9242 30.8846C36.165 30.2928 37.3382 29.5676 38.4232 28.7217C39.4881 27.9564 40.4202 27.0201 41.1821 25.9505C41.6289 26.206 42.0367 26.5247 42.3931 26.897C42.8384 26.4019 43.1409 25.7942 43.268 25.1393C42.9182 24.7413 42.5098 24.3993 42.057 24.1252C42.3066 23.3144 42.4424 22.4726 42.4605 21.6241C42.4605 20.8129 42.2584 20.34 41.7876 20.137C41.2494 19.9341 40.5765 20.2047 39.7016 20.9482C39.3305 21.2513 39.0299 21.6322 38.8207 22.0642C38.6115 22.4963 38.4988 22.969 38.4906 23.4494C38.4906 24.1929 39.1635 24.9364 40.4419 25.6123C39.0912 26.9026 37.6015 28.0378 36.0006 28.9968C34.386 29.8728 32.7035 30.8863 31.0211 31.9004ZM39.7016 22.4375C39.7016 22.3022 39.8361 22.1671 40.1051 22.0322C40.2912 21.91 40.4957 21.8186 40.7107 21.7617C41.0474 21.7617 41.2488 21.9646 41.3162 22.4375C41.3948 22.8421 41.3718 23.26 41.2494 23.6534C40.2398 23.1811 39.7016 22.7758 39.7016 22.4375Z" fill="#C3922E"/>
<path d="M17.2281 13.177H17.4975C18.305 13.177 18.9779 11.9606 19.4487 9.59583L19.3141 9.46054H19.2467C18.7085 10.6094 18.1715 11.1505 17.6989 11.1505C17.0261 11.1505 16.7567 10.4746 16.7567 9.19053C16.7567 8.37956 17.2283 6.41938 18.1715 3.31H18.0368C16.5535 5.87708 15.8133 8.10765 15.8133 10.1359V11.15C15.8074 11.422 15.8299 11.6939 15.8806 11.9611C16.2168 12.7717 16.6209 13.177 17.2281 13.177Z" fill="#C3922E"/>
<path d="M54.9768 38.1862C53.903 37.2867 52.7288 36.5154 51.4778 35.888C49.9098 34.9647 48.4436 33.8771 47.1038 32.6433C47.5031 32.7217 47.9082 32.767 48.3149 32.7786C49.1225 32.8463 49.4586 32.6433 49.4586 32.3057C49.4586 32.0351 49.1892 31.8327 48.5837 31.5622L44.0077 29.061C43.7214 28.8688 43.4021 28.7313 43.066 28.6557C42.9314 28.6557 42.7967 28.9263 42.7293 29.3992C42.4233 30.5666 42.3321 31.7802 42.4599 32.9804C41.0825 34.3074 39.9899 35.9034 39.2493 37.6702C38.5086 39.4371 38.1357 41.3375 38.1533 43.2545C38.1705 44.551 38.4934 45.8251 39.0956 46.9721C37.779 47.5335 36.3528 47.7877 34.9242 47.7156V47.7832C34.0393 47.8344 33.1568 47.6478 32.3674 47.2426C31.2237 46.4991 30.4835 45.0121 30.0795 42.6462C29.1372 37.2386 28.397 33.0481 27.7915 30.0063C27.6568 29.3305 27.5221 28.7222 27.388 28.0464L24.7638 30.8852C25.6387 34.1969 26.0422 36.5628 26.0422 38.1174C26.0656 38.6562 25.9496 39.1918 25.7055 39.6721C25.4643 40.1119 25.1705 40.5204 24.8306 40.8886C22.6533 43.7065 20.0133 46.1306 17.0244 48.0566C12.7178 51.0307 8.74732 52.5178 5.04681 52.5178C2.42267 52.5178 1.07693 51.166 1.07693 48.4625C1.07693 46.5702 1.61511 43.8661 2.6247 40.2838C2.78214 39.9191 2.87318 39.5291 2.89351 39.1321C2.89351 38.9292 2.82617 38.8615 2.75882 38.8615C2.55679 38.8615 2.35533 39.2668 2.01861 40.0104C0.740208 43.8638 -7.61356e-06 47.3785 -7.61356e-06 50.8261C-0.03941 52.3911 0.356678 53.936 1.1437 55.2872C1.52452 55.9816 2.09346 56.5533 2.78458 56.9361C3.47569 57.319 4.26067 57.4972 5.04851 57.4502C8.3459 57.4502 11.9796 56.1659 15.9497 53.5973C19.2904 51.4798 22.267 48.8319 24.7633 45.7567C26.0582 44.0625 26.893 42.0595 27.1859 39.9438C27.6568 42.9179 27.9261 44.8779 28.1282 45.892C28.599 48.7308 29.543 50.6232 30.9544 51.7049C31.9639 52.4484 33.3097 52.785 35.0589 52.785V52.7179C36.5059 52.6315 37.9226 52.2648 39.2308 51.6378C40.6934 50.9714 42.0713 50.1317 43.3354 49.1367C45.747 49.9235 48.27 50.3115 50.8055 50.2855C52.4206 50.2855 53.5643 50.0826 54.3707 49.6096C55.0155 49.1524 55.5454 48.5506 55.9185 47.852C56.6973 46.4273 57.0694 44.8143 56.9938 43.1908C57.0447 42.259 56.8903 41.3273 56.5417 40.4623C56.1931 39.5972 55.6587 38.8201 54.9768 38.1862ZM43.8736 44.4721C42.9048 44.2883 41.9728 43.9457 41.1148 43.458C40.0395 42.7821 39.4997 42.0368 39.4997 41.0921C39.4997 40.0121 40.0378 38.8615 41.1821 37.5774C42.3264 36.2933 43.2681 35.6174 44.0083 35.6174C44.4791 35.6174 45.0835 36.158 45.7581 37.3074C46.4343 38.2804 46.8085 39.4328 46.8333 40.6192C46.8345 42.0391 45.8254 43.3232 43.8736 44.4721ZM52.4868 45.9591C50.6923 45.9169 48.9087 45.667 47.1712 45.2144C48.022 43.1529 48.501 40.9557 48.586 38.7257C49.6837 39.7146 50.9053 40.5555 52.2197 41.2268C53.7675 42.1733 54.7097 42.8492 55.0459 43.3221C55.4197 43.7612 55.654 44.3027 55.7188 44.8768C55.6497 45.6214 54.5728 45.9591 52.4868 45.9591Z" fill="#C3922E"/>
<path d="M22.2732 23.654C23.0134 22.8428 23.9557 21.8293 25.0994 20.5446C24.1918 18.244 22.9687 16.082 21.4656 14.1212C21.1289 13.7159 20.9275 13.783 20.7928 14.4594C20.6581 15 20.5234 15.8112 20.3219 16.8929C20.1603 17.533 20.0922 18.1932 20.1199 18.8529C20.9948 20.6123 21.6677 22.167 22.2732 23.654Z" fill="#C3922E"/>
<path d="M16.0821 34.7392C17.966 34.7392 20.9942 32.7115 22.1374 31.4274C24.4927 28.9263 27.5877 25.1416 29.6075 23.2487C32.0975 20.8828 38.0186 16.4217 41.4509 16.4217C42.3277 16.3994 43.1927 16.6292 43.9437 17.0843C44.6948 17.5393 45.3008 18.2005 45.6902 18.9899C45.8922 19.3281 46.0269 19.4629 46.161 19.4629C46.2284 19.4629 46.2957 19.3276 46.4304 18.9899C46.9041 17.9053 47.1339 16.7291 47.1033 15.5452C47.0945 15.0052 46.9624 14.4746 46.7171 13.9941C46.4718 13.5136 46.1199 13.0962 45.6885 12.774C44.7518 11.9788 43.551 11.5677 42.3258 11.6229C37.8174 11.6229 32.7032 14.7321 26.9833 20.9505C25.6376 22.3716 22.542 25.8169 20.7254 27.7098C18.5721 30.0757 16.2864 30.9539 14.5321 30.9539C14.029 30.9822 13.5267 30.8861 13.0691 30.674C12.6116 30.4619 12.2129 30.1404 11.9079 29.7375C11.2716 28.8573 10.9621 27.7812 11.033 26.6957C11.033 25.0057 11.5712 22.7735 12.6481 19.8687C13.7251 16.964 14.2633 15.2723 14.2633 14.7994C14.2678 14.7626 14.2641 14.7253 14.2524 14.6902C14.2408 14.6551 14.2215 14.6231 14.1959 14.5964C14.0612 14.5964 13.8592 14.867 13.5904 15.3399C11.1026 20.2064 9.89157 24.1286 9.89157 27.1692C9.82246 29.1656 10.4938 31.1166 11.7755 32.6439C12.2868 33.2998 12.9407 33.8296 13.6871 34.1927C14.4336 34.5559 15.2527 34.7428 16.0821 34.7392Z" fill="#C3922E"/>
<path d="M17.4283 40.8227C17.7344 40.13 17.9602 39.4042 18.1012 38.6598C18.1543 38.4344 18.1513 38.1994 18.0926 37.9754C18.0339 37.7515 17.9212 37.5455 17.7645 37.3756L17.6298 37.2404C17.2263 37.0374 16.6202 37.1727 15.88 37.6457C15.8127 37.6457 15.8127 37.7133 15.7453 37.7133C15.3883 37.9333 15.0831 38.2286 14.8507 38.5786C14.6184 38.9287 14.4644 39.3253 14.3996 39.7409C14.3322 40.4168 14.8031 41.0927 15.88 41.8362C14.7527 43.048 13.4615 44.0947 12.0442 44.9456C10.7378 45.8775 9.36602 46.7134 7.93966 47.4467C10.3623 45.4191 11.6407 43.6615 11.8445 42.0391C12.0465 40.618 11.441 39.8762 10.0947 39.6733C9.41505 39.67 8.76184 39.9373 8.27807 40.4168C7.95736 40.647 7.68522 40.9387 7.47736 41.2751C7.26949 41.6115 7.13003 41.986 7.06702 42.3768C7.02788 42.7435 7.06771 43.1143 7.18381 43.4642C7.29991 43.814 7.48956 44.1347 7.73989 44.4044C8.27807 45.0127 8.54745 45.4845 8.48011 45.7562C8.48464 45.7929 8.48095 45.8302 8.46929 45.8653C8.45764 45.9004 8.43833 45.9325 8.41276 45.9591C7.67255 46.7026 6.86499 47.5138 5.99008 48.2573C5.76228 48.4589 5.55869 48.6865 5.38342 48.9355C5.38342 49.0029 5.45077 49.0706 5.58545 49.1384C5.90665 49.11 6.22313 49.0418 6.5277 48.9355C10.8343 47.3808 14.1987 45.1502 16.554 42.2438C16.9403 42.5043 17.2619 42.8505 17.494 43.2556C17.9259 42.846 18.2496 42.335 18.4362 41.7686C18.1482 41.4054 17.8086 41.0867 17.4283 40.8227ZM8.27694 42.9856C8.00757 42.6474 7.87345 42.3774 7.94022 42.1068C7.94022 41.9039 8.14225 41.7015 8.47841 41.4986C8.78313 41.3153 9.1329 41.2216 9.488 41.228C10.5632 41.3633 11.1031 41.9039 10.9684 42.8503C10.9011 43.5938 10.0935 44.6079 8.68044 45.892C8.87142 45.6199 8.9902 45.3033 9.02555 44.9722C9.0609 44.6411 9.01165 44.3064 8.88247 43.9997C8.72332 43.6377 8.51991 43.2971 8.27694 42.9856ZM16.7583 40.4168C15.8834 39.8762 15.4799 39.4027 15.5472 39.1327C15.5472 38.9974 15.6819 38.8621 15.9507 38.7945C16.2195 38.7268 16.4216 38.6592 16.4889 38.6592C16.6267 38.6875 16.7499 38.7644 16.8363 38.8759C16.9226 38.9874 16.9664 39.1263 16.9598 39.2674C17.0311 39.6624 16.9597 40.07 16.7583 40.4168Z" fill="#C3922E"/>
<path d="M18.8783 61.9073L21.3027 58.0016L20.159 57.9555C19.9814 57.9328 19.8012 57.9454 19.6285 57.9928C19.4559 58.0401 19.2942 58.1211 19.1528 58.2312L19.5189 57.4502H22.4922L20.0667 61.3105L21.4849 61.4025C21.9545 61.4228 22.4186 61.2942 22.8114 61.0348L22.4453 61.9079L18.8783 61.9073Z" fill="white"/>
<path d="M27.5702 61.448C27.4067 61.6367 27.2017 61.7848 26.9716 61.8804C26.7414 61.9761 26.4922 62.0169 26.2437 61.9994C25.7877 62.0163 25.3436 61.8511 25.0083 61.5401C24.8671 61.3518 24.7658 61.1364 24.7107 60.9073C24.6556 60.6781 24.6479 60.44 24.688 60.2077V58.4154C24.688 58.0937 24.7339 57.6343 24.4136 57.4962H25.6942C25.3739 57.6343 25.4198 58.1397 25.4198 58.4154V60.2077C25.4198 61.1269 25.7859 61.5401 26.4718 61.5401C26.6578 61.5522 26.8438 61.5163 27.0122 61.436C27.1806 61.3556 27.3257 61.2333 27.4339 61.0808C27.5485 60.9042 27.5972 60.6926 27.5714 60.4834V58.4626C27.5714 58.1408 27.6172 57.6815 27.2969 57.5434H28.5776C28.2114 57.6815 28.2573 58.1869 28.2573 58.4626V60.9899C28.2573 61.3116 28.2114 61.7709 28.5776 61.909H27.5702V61.448Z" fill="white"/>
<path d="M31.3669 59.7018V60.9427C31.3669 61.2644 31.3211 61.7237 31.6414 61.8618H30.3607C30.681 61.7237 30.6352 61.2184 30.6352 60.9427V58.3693C30.6352 58.0476 30.681 57.5883 30.3607 57.4502H31.6414C31.3211 57.5883 31.3669 58.0936 31.3669 58.3693V59.1964H33.7913V58.3693C33.7913 58.0476 33.8371 57.5423 33.5168 57.4502H34.7975C34.4313 57.5883 34.4772 58.0936 34.4772 58.3693V60.9427C34.4772 61.2644 34.4313 61.7237 34.7975 61.8618H33.5174C33.8835 61.7237 33.7919 61.2184 33.7919 60.9427V59.7018H31.3669Z" fill="white"/>
<path d="M36.9026 58.3693C36.9026 58.0476 36.9485 57.5423 36.6282 57.4502H38.275C39.8301 57.4502 40.7452 58.2772 40.7452 59.6557C40.7452 60.9881 39.739 61.9073 38.2291 61.9073H36.6282C36.9485 61.6799 36.9026 61.3559 36.9026 60.941V58.3693ZM37.5902 61.3559C37.7551 61.394 37.9243 61.4095 38.0933 61.402C39.0995 61.402 40.0174 60.8966 40.0174 59.7018C40.0483 59.459 40.0233 59.2124 39.9446 58.9809C39.8658 58.7493 39.7353 58.539 39.563 58.3659C39.3907 58.1929 39.1813 58.0618 38.9508 57.9827C38.7203 57.9036 38.4748 57.8785 38.2331 57.9095C38.032 57.9176 37.8325 57.9485 37.6383 58.0016V61.3554L37.5902 61.3559Z" fill="white"/>
</g>
<defs>
<clipPath id="clip0_20_126">
<rect width="57" height="62" fill="white"/>
</clipPath>
</defs>
</svg>
